<?xml version="1.0" encoding="utf-8"?>
<!-- Generator: Adobe Illustrator 25.4.1, SVG Export Plug-In . SVG Version: 6.00 Build 0)  -->
<svg version="1.1" id="Layer_1" xmlns="http://www.w3.org/2000/svg" xmlns:xlink="http://www.w3.org/1999/xlink" x="0px" y="0px"
	 width="1920px" height="814.97052px" viewBox="0 0 1920 814.97052" style="enable-background:new 0 0 1920 814.97052;"
	 xml:space="preserve">
<style type="text/css">
	.st0{fill:#04091E;}
</style>
<path class="st0" d="M1920,44.4424858c-22.2208252,26.265995-58.7766113,60.880558-110.8571777,73.2857056
	C1731.2150879,136.2899017,1673.0643311,92.1374359,1570,54.0853691
	c-13.1485596-4.8545532-142.4699707-51.6585693-273.8566895-53.9953613
	c-188.0612793-3.3447266-196.6928711,87.680542-372.2147217,80.9953613
	C774.3137207,75.3868866,732.4949341,7.4175234,628.8571777,46.3710747
	c-70.9212036,26.65662-94.8196411,74.8292236-167.7857361,73.2857056
	c-62.9132385-1.3308716-74.3954773-37.7625732-135.0000305-34.7142944
	c-74.5157166,3.7480469-93.8229828,60.6686401-154.2857056,65.5714722C134.6755066,153.5231781,77.5002747,137.3063812,0,34.7996635
	C0,294.8565979,0,554.9135742,0,814.97052c640-0.8258667,1280-1.6516113,1920-2.477478
	C1920,556.4761963,1920,300.4593201,1920,44.4424858z"/>
</svg>
