<?xml version="1.0" encoding="utf-8"?>
<!-- Generator: Adobe Illustrator 25.4.1, SVG Export Plug-In . SVG Version: 6.00 Build 0)  -->
<svg version="1.1" id="Layer_1" xmlns="http://www.w3.org/2000/svg" xmlns:xlink="http://www.w3.org/1999/xlink" x="0px" y="0px"
	 width="2032.5319824px" height="2267.0361328px" viewBox="0 0 2032.5319824 2267.0361328"
	 style="enable-background:new 0 0 2032.5319824 2267.0361328;" xml:space="preserve" preserveAspectRatio="xMidYMid meet">
<style type="text/css">
	.st0{fill:#EDEFF3;}
</style>
<path id="XMLID_28_" class="st0" d="M1854.4893799,369.8463745
	c-31.9237061-29.2089844-75.7077637-69.1281433-136.1054688-117.453186
	C1579.9500732,141.6305237,1479.8343506,87.2000427,1453.487915,73.1523666
	c-39.1446533-20.8715744-106.8087158-54.6327744-190.1749268-68.4426117
	c-35.1691895-5.8257751-69.3144531-7.4684305-107.0498047,2.2207694
	c-11.2406006,2.8861833-39.4573975,10.0217552-69.2104492,30.6182613
	c-34.1453857,23.6370201-60.291748,55.0134392-82.9481201,89.3532257
	c-27.1442871,41.1420288-48.9768066,85.1846161-68.921814,130.1548157
	c-20.9348145,47.202179-39.9952393,95.1912537-58.562561,143.3629456
	c-22.9480591,59.5371399-45.9122314,119.0642395-69.8397217,178.2177429
	c-19.984314,49.4053955-41.4584961,98.1586914-64.4411621,146.2259521
	c-20.0446167,41.9225464-42.262085,82.7085571-65.8636475,122.7602539
	c-29.5256958,50.1050415-63.1392212,97.348999-99.0856934,142.9589844
	c-41.4343872,52.5733032-86.223877,102.2781372-132.9449158,150.1229858
	c-43.7113037,44.7629395-88.2545471,88.7288818-132.9537659,132.5339355
	c-51.164856,50.1417236-102.486145,100.1799316-150.448822,153.50354
	c-38.3177338,42.6005859-57.1242218,64.2160645-78.6783066,96.3505859
	c-33.7052956,50.2506104-66.6458893,99.3609619-78.2275772,172.5876465
	c-11.0436687,69.8250732,2.7020521,127.6329346,10.1218777,152.8773193
	c8.6395626,29.394165,19.9208469,52.8519287,26.2499943,65.8330078
	c4.8826485,10.0144043,22.7379227,46.0725098,56.2801971,90.2338867
	c9.4279404,12.4125977,44.997345,58.2547607,104.0912628,107.3563232
	c62.8527985,52.2246094,119.5431976,80.9035645,138.8319244,90.2661133
	c87.8453979,42.6396484,163.5120544,55.2714844,188.8669739,58.9372559
	c122.3637085,17.690918,218.0152588-7.8952637,314.1392212-34.6694336
	c64.5673218-17.9846191,134.0489502-47.2424316,273.0122681-105.7578125
	c87.8657227-36.9990234,110.4688721-49.2016602,177.5966797-73.5461426
	c34.3474121-12.4564209,107.3668213-37.888916,203.2685547-61.972168
	c96.6628418-24.2744141,139.5058594-27.8248291,248.9490967-47.7901611
	c68.6866455-12.5302734,167.2225342-32.185791,286.9873047-62.0979004V546.0397949
	C1989.3731689,499.8138123,1929.529541,438.505249,1854.4893799,369.8463745z"/>
</svg>
