<?xml version="1.0" encoding="utf-8"?>
<!-- Generator: Adobe Illustrator 25.4.1, SVG Export Plug-In . SVG Version: 6.00 Build 0)  -->
<svg version="1.1" id="Layer_1" xmlns="http://www.w3.org/2000/svg" xmlns:xlink="http://www.w3.org/1999/xlink" x="0px" y="0px"
	 width="2151.9956055px" height="1932.3676758px" viewBox="0 0 2151.9956055 1932.3676758"
	 style="enable-background:new 0 0 2151.9956055 1932.3676758;" xml:space="preserve" preserveAspectRatio="xMidYMid meet">
<style type="text/css">
	.st0{fill:#EDEFF3;}
</style>
<path id="XMLID_10_" class="st0" d="M2151.9956055,0c-408.4345703,299.6927795-573.2641602,331.901123-637.6904297,279.6540222
	c-29.3852539-23.8302307-32.2910156-60.6908875-66.8028564-69.707428
	c-95.7114258-25.0051575-159.8195801,235.9072571-351.4414062,357.2502441
	C814.0780029,745.760437,491.6960449,472.813385,340.8979492,636.9042358
	c-114.0792847,124.1351929,28.4937744,325.9634399-122.6038818,507.8147583
	c-96.2900925,115.8883057-204.9643555,95.0313721-217.2194214,166.0230713
	c-23.4903564,136.0759277,342.0737915,408.0092773,708.6914673,386.2947998
	c250.0905762-14.8126221,301.7186279-154.4866943,487.951416-107.4654541
	c199.2237549,50.3013916,207.6315918,227.1820068,450.1933594,296.2562256
	c129.9855957,37.0159912,170.5766602-1.532959,345.6320801,17.4268799
	c56.2399902,6.0910645,109.1118164,16.2746582,158.4526367,29.1131592V0z"/>
</svg>
