<?xml version="1.0" encoding="utf-8"?>
<!-- Generator: Adobe Illustrator 25.4.1, SVG Export Plug-In . SVG Version: 6.00 Build 0)  -->
<svg version="1.1" id="Layer_1" xmlns="http://www.w3.org/2000/svg" xmlns:xlink="http://www.w3.org/1999/xlink" x="0px" y="0px"
	 width="1794.7388916px" height="982.4203491px" viewBox="0 0 1794.7388916 982.4203491"
	 style="enable-background:new 0 0 1794.7388916 982.4203491;" xml:space="preserve" preserveAspectRatio="none">
<style type="text/css">
	.st0{fill:#EDEFF3;}
</style>
<path class="st0" d="M1794.7387695,0c-57.6577148,48.6095238-111.3955078,81.9688416-150.5744629,103.6665497
	c-45.6166992,25.2630463-70.8481445,34.3592987-99.0097656,39.1681671
	c-16.1013184,2.7494659-59.0637207,8.5205841-126.0126953-6.9120483
	c-100.1331787-23.0820618-106.0126953-59.5016479-183.0183105-82.9442978
	c-116.5919189-35.4937973-237.0626221,7.2171173-255.0253906,13.824028
	c-88.5913086,32.584877-134.7276611,87.8547974-171.0172119,131.3285217
	c-57.9650879,69.4404602-52.769043,104.9050903-126.0125732,179.7126465
	c-35.7258301,36.4886169-53.5887451,54.7329712-84.0084229,71.4242554
	c-140.9432373,77.3354492-297.4178467-14.7769165-471.0469971,50.6881714
	C94.1582031,513.0976562,46.3376465,537.2172241,0,585.2043457v396.2894897
	c21.5678711,1.2235107,54.2009277,1.8850708,93.0092773-2.3040161
	c182.4475098-19.6941528,220.855957-116.3161621,351.6762695-136.9328003
	c143.4232178-22.6028442,180.1624756,80.4672241,358.4821777,77.1726074
	c148.6500244-2.7463989,206.9868164-75.9207764,332.9833984-118.6385498
	c127.333252-43.1710205,329.4643555-57.1578369,658.5876465,69.9046021V0z"/>
</svg>
